<mxfile host="app.diagrams.net" modified="2024-02-26T00:43:40.177Z" agent="Mozilla/5.0 (Windows NT 10.0; Win64; x64) AppleWebKit/537.36 (KHTML, like Gecko) Chrome/121.0.0.0 Safari/537.36" version="23.1.6" etag="Nwy0xnqIF02pJiefIACr" type="github">
  <diagram name="第 1 页" id="cHEvMuXp1ahBySsxnO7c">
    <mxGraphModel>
      <root>
        <mxCell id="0" />
        <mxCell id="1" parent="0" />
      </root>
    </mxGraphModel>
  </diagram>
</mxfile>
